<svg xmlns="http://www.w3.org/2000/svg" xmlns:xlink="http://www.w3.org/1999/xlink" version="1.1" width="250" height="70" viewBox="0 0 250 70" xml:space="preserve">
<desc>Created with Fabric.js 3.5.0</desc>
<defs>
</defs>
<rect x="0" y="0" width="100%" height="100%" fill="#ffffff"/>
<g transform="matrix(1 0 0 1 167.4144 35)" style="" id="102902">
		
<path xml:space="preserve" font-family="Aleo" font-size="23" font-style="normal" font-weight="bold" style="stroke: none; stroke-width: 0; stroke-dasharray: none; stroke-linecap: butt; stroke-dashoffset: 0; stroke-linejoin: miter; stroke-miterlimit: 4; is-custom-font: none; font-file-url: none; fill: rgb(72,71,72); fill-rule: nonzero; opacity: 1; white-space: pre;" d="M-61.35-4.16Q-61.77-4.16-61.88-4.57L-61.88-4.57Q-61.95-4.87-62.09-6.41L-62.09-6.41Q-63.91-6.94-65.26-6.94L-65.26-6.94Q-66.48-6.94-67.43-6.55L-67.43-6.55Q-68.42-6.14-69.11-5.38L-69.11-5.38Q-69.82-4.60-70.21-3.54L-70.21-3.54Q-70.62-2.43-70.62-1.08L-70.62-1.08Q-70.62 0.30-70.21 1.41L-70.21 1.41Q-69.77 2.56-69.15 3.25L-69.15 3.25Q-68.48 3.98-67.54 4.40L-67.54 4.40Q-66.67 4.79-65.56 4.79L-65.56 4.79Q-64.92 4.79-64.41 4.72L-64.41 4.72Q-63.88 4.65-63.47 4.51L-63.47 4.51Q-63.08 4.37-62.67 4.12L-62.67 4.12Q-62.32 3.91-61.91 3.52L-61.91 3.52Q-61.84 3.45-61.65 3.36L-61.65 3.36Q-61.56 3.32-61.38 3.32L-61.38 3.32Q-61.10 3.32-60.94 3.50L-60.94 3.50L-59.72 4.83Q-60.73 6.10-62.21 6.74L-62.21 6.74Q-63.72 7.41-65.77 7.41L-65.77 7.41Q-67.54 7.41-69.08 6.77L-69.08 6.77Q-70.60 6.12-71.61 5.02L-71.61 5.02Q-72.69 3.84-73.22 2.33L-73.22 2.33Q-73.77 0.76-73.77-1.08L-73.77-1.08Q-73.77-2.99-73.15-4.53L-73.15-4.53Q-72.53-6.07-71.41-7.20L-71.41-7.20Q-70.23-8.37-68.71-8.97L-68.71-8.97Q-67.15-9.59-65.24-9.59L-65.24-9.59Q-63.13-9.59-60.02-8.39L-60.02-8.39L-60.02-4.16L-61.35-4.16ZM-48.45 5.13Q-47.88 5.27-47.88 5.85L-47.88 5.85L-47.88 7.20L-50.59 7.20Q-51.03 7.20-51.23 7.09L-51.23 7.09Q-51.46 7.00-51.58 6.58L-51.58 6.58L-51.83 5.75Q-52.29 6.19-52.71 6.47L-52.71 6.47Q-53.03 6.70-53.60 6.97L-53.60 6.97Q-54.02 7.16-54.57 7.27L-54.57 7.27Q-55.14 7.39-55.72 7.39L-55.72 7.39Q-56.48 7.39-57.10 7.18L-57.10 7.18Q-57.77 6.95-58.18 6.58L-58.18 6.58Q-58.66 6.14-58.89 5.57L-58.89 5.57Q-59.15 4.95-59.15 4.19L-59.15 4.19Q-59.15 3.50-58.80 2.86L-58.80 2.86Q-58.46 2.19-57.63 1.68L-57.63 1.68Q-56.75 1.13-55.47 0.81L-55.47 0.81Q-54.11 0.46-52.09 0.46L-52.09 0.46L-52.09-0.23Q-52.09-1.38-52.59-2.00L-52.59-2.00Q-53.07-2.57-54.04-2.57L-54.04-2.57Q-54.78-2.57-55.19-2.41L-55.19-2.41Q-55.72-2.20-56.00-2.04L-56.00-2.04L-56.62-1.70Q-56.87-1.54-57.24-1.54L-57.24-1.54Q-57.54-1.54-57.74-1.68L-57.74-1.68Q-57.88-1.77-58.07-2.04L-58.07-2.04L-58.59-2.94Q-56.52-4.83-53.70-4.83L-53.70-4.83Q-52.66-4.83-51.83-4.48L-51.83-4.48Q-51.03-4.14-50.48-3.54L-50.48-3.54Q-49.85-2.83-49.60-2.09L-49.60-2.09Q-49.33-1.26-49.33-0.25L-49.33-0.25L-49.33 4.97L-48.70 5.09L-48.45 5.13ZM-52.09 2.19Q-53.37 2.19-54.16 2.35L-54.16 2.35Q-55.01 2.53-55.51 2.76L-55.51 2.76Q-56.02 2.99-56.23 3.32L-56.23 3.32Q-56.43 3.61-56.43 4.03L-56.43 4.03Q-56.43 4.81-56.00 5.11L-56.00 5.11Q-55.54 5.43-54.85 5.43L-54.85 5.43Q-54.41 5.43-54.04 5.36L-54.04 5.36Q-53.65 5.29-53.33 5.11L-53.33 5.11Q-52.91 4.88-52.71 4.72L-52.71 4.72Q-52.38 4.47-52.09 4.17L-52.09 4.17L-52.09 2.19ZM-27.54 5.16Q-26.97 5.29-26.97 5.87L-26.97 5.87L-26.97 7.23L-31.55 7.23L-31.55-0.27Q-31.55-1.42-32.03-1.97L-32.03-1.97Q-32.51-2.55-33.48-2.55L-33.48-2.55Q-33.87-2.55-34.31-2.39L-34.31-2.39Q-34.67-2.25-34.95-1.97L-34.95-1.97Q-35.18-1.74-35.39-1.26L-35.39-1.26Q-35.55-0.87-35.55-0.27L-35.55-0.27L-35.55 4.95L-34.88 5.06L-34.54 5.13L-34.40 5.16Q-33.82 5.29-33.82 5.87L-33.82 5.87L-33.82 7.23L-38.40 7.23L-38.40-0.27Q-38.40-1.45-38.88-2.00L-38.88-2.00Q-39.37-2.55-40.29-2.55L-40.29-2.55Q-40.91-2.55-41.44-2.25L-41.44-2.25Q-41.92-1.97-42.43-1.40L-42.43-1.40L-42.43 4.95L-41.76 5.06L-41.41 5.13L-41.28 5.16Q-40.70 5.29-40.70 5.87L-40.70 5.87L-40.70 7.23L-47.00 7.23L-47.00 5.87Q-47.00 5.29-46.43 5.16L-46.43 5.16L-46.29 5.13Q-46.22 5.13-46.14 5.11Q-46.06 5.09-45.94 5.06L-45.94 5.06L-45.28 4.95L-45.28-2.30L-45.94-2.41Q-46.06-2.43-46.14-2.46Q-46.22-2.48-46.29-2.48L-46.29-2.48L-46.43-2.50Q-47.03-2.64-47.03-3.22L-47.03-3.22L-47.03-4.57L-43.53-4.57Q-43.00-4.57-42.82-4.04L-42.82-4.04L-42.63-3.17Q-42.22-3.63-41.99-3.81L-41.99-3.81Q-41.67-4.07-41.25-4.30L-41.25-4.30Q-40.88-4.50-40.42-4.64L-40.42-4.64Q-40.06-4.76-39.46-4.76L-39.46-4.76Q-38.31-4.76-37.62-4.16L-37.62-4.16Q-36.88-3.52-36.54-2.55L-36.54-2.55Q-36.26-3.15-35.85-3.56L-35.85-3.56Q-35.48-3.93-34.95-4.23L-34.95-4.23Q-34.56-4.46-33.89-4.62L-33.89-4.62Q-33.34-4.76-32.77-4.76L-32.77-4.76Q-31.78-4.76-31.04-4.46L-31.04-4.46Q-30.24-4.14-29.75-3.58L-29.75-3.58Q-29.25-3.01-28.97-2.18L-28.97-2.18Q-28.69-1.35-28.69-0.27L-28.69-0.27L-28.69 4.95L-28.03 5.06Q-27.91 5.09-27.83 5.11Q-27.75 5.13-27.68 5.13L-27.68 5.13L-27.54 5.16ZM-13.95-1.33Q-13.63-0.16-13.63 1.22L-13.63 1.22Q-13.63 2.46-14.00 3.68L-14.00 3.68Q-14.32 4.79-15.01 5.64L-15.01 5.64Q-15.63 6.42-16.60 6.93L-16.60 6.93Q-17.49 7.39-18.71 7.39L-18.71 7.39Q-19.72 7.39-20.39 7.09L-20.39 7.09Q-21.15 6.74-21.66 6.24L-21.66 6.24L-21.66 8.79Q-21.43 8.84-21.25 8.87Q-21.08 8.90-20.97 8.93L-20.97 8.93Q-20.60 8.97-20.62 8.97L-20.62 8.97L-20.48 9.00Q-19.91 9.13-19.91 9.73L-19.91 9.73L-19.91 11.07L-26.23 11.07L-26.23 9.73Q-26.23 9.13-25.66 9.00L-25.66 9.00L-25.52 8.97L-25.18 8.93L-24.49 8.79L-24.49-2.30L-25.18-2.41Q-25.29-2.43-25.37-2.46Q-25.45-2.48-25.52-2.48L-25.52-2.48L-25.66-2.50Q-26.23-2.64-26.23-3.22L-26.23-3.22L-26.23-4.57L-22.76-4.57Q-22.48-4.57-22.28-4.44L-22.28-4.44Q-22.09-4.32-22.02-4.04L-22.02-4.04L-21.79-2.96Q-21.10-3.75-20.16-4.27L-20.16-4.27Q-19.24-4.78-18.00-4.78L-18.00-4.78Q-16.99-4.78-16.23-4.39L-16.23-4.39Q-15.42-3.98-14.85-3.22L-14.85-3.22Q-14.27-2.48-13.95-1.33L-13.95-1.33ZM-16.76 3.02Q-16.57 2.35-16.57 1.25L-16.57 1.25Q-16.57 0.14-16.73-0.53L-16.73-0.53Q-16.90-1.22-17.22-1.68L-17.22-1.68Q-17.54-2.14-17.98-2.34L-17.98-2.34Q-18.41-2.55-18.97-2.55L-18.97-2.55Q-19.89-2.55-20.48-2.18L-20.48-2.18Q-21.13-1.79-21.66-1.12L-21.66-1.12L-21.66 4.17Q-21.20 4.74-20.60 4.99L-20.60 4.99Q-20.07 5.22-19.38 5.22L-19.38 5.22Q-18.69 5.22-18.21 4.99L-18.21 4.99Q-17.75 4.79-17.33 4.26L-17.33 4.26Q-16.94 3.73-16.76 3.02L-16.76 3.02ZM-2.27 5.13Q-1.69 5.27-1.69 5.85L-1.69 5.85L-1.69 7.20L-4.41 7.20Q-4.84 7.20-5.05 7.09L-5.05 7.09Q-5.28 7.00-5.40 6.58L-5.40 6.58L-5.65 5.75Q-6.11 6.19-6.52 6.47L-6.52 6.47Q-6.84 6.70-7.42 6.97L-7.42 6.97Q-7.83 7.16-8.39 7.27L-8.39 7.27Q-8.96 7.39-9.54 7.39L-9.54 7.39Q-10.29 7.39-10.92 7.18L-10.92 7.18Q-11.58 6.95-12.00 6.58L-12.00 6.58Q-12.48 6.14-12.71 5.57L-12.71 5.57Q-12.96 4.95-12.96 4.19L-12.96 4.19Q-12.96 3.50-12.62 2.86L-12.62 2.86Q-12.27 2.19-11.44 1.68L-11.44 1.68Q-10.57 1.13-9.28 0.81L-9.28 0.81Q-7.93 0.46-5.90 0.46L-5.90 0.46L-5.90-0.23Q-5.90-1.38-6.41-2.00L-6.41-2.00Q-6.89-2.57-7.86-2.57L-7.86-2.57Q-8.59-2.57-9.01-2.41L-9.01-2.41Q-9.54-2.20-9.81-2.04L-9.81-2.04L-10.43-1.70Q-10.69-1.54-11.05-1.54L-11.05-1.54Q-11.35-1.54-11.56-1.68L-11.56-1.68Q-11.70-1.77-11.88-2.04L-11.88-2.04L-12.41-2.94Q-10.34-4.83-7.51-4.83L-7.51-4.83Q-6.48-4.83-5.65-4.48L-5.65-4.48Q-4.84-4.14-4.29-3.54L-4.29-3.54Q-3.67-2.83-3.42-2.09L-3.42-2.09Q-3.14-1.26-3.14-0.25L-3.14-0.25L-3.14 4.97L-2.52 5.09L-2.27 5.13ZM-5.90 2.19Q-7.19 2.19-7.97 2.35L-7.97 2.35Q-8.82 2.53-9.33 2.76L-9.33 2.76Q-9.83 2.99-10.04 3.32L-10.04 3.32Q-10.25 3.61-10.25 4.03L-10.25 4.03Q-10.25 4.81-9.81 5.11L-9.81 5.11Q-9.35 5.43-8.66 5.43L-8.66 5.43Q-8.22 5.43-7.86 5.36L-7.86 5.36Q-7.47 5.29-7.14 5.11L-7.14 5.11Q-6.73 4.88-6.52 4.72L-6.52 4.72Q-6.20 4.47-5.90 4.17L-5.90 4.17L-5.90 2.19ZM4.15-8.02Q4.15-7.70 3.99-7.33L3.99-7.33Q3.85-7.01 3.60-6.76L3.60-6.76Q3.32-6.48 3.02-6.37L3.02-6.37Q2.68-6.23 2.31-6.23L2.31-6.23Q1.94-6.23 1.60-6.37L1.60-6.37Q1.32-6.48 1.04-6.76L1.04-6.76Q0.79-7.01 0.65-7.33L0.65-7.33Q0.52-7.66 0.52-8.02L0.52-8.02Q0.52-8.39 0.65-8.74L0.65-8.74Q0.77-9.04 1.04-9.31L1.04-9.31Q1.30-9.56 1.60-9.68L1.60-9.68Q2.01-9.84 2.31-9.84L2.31-9.84Q2.61-9.84 3.02-9.68L3.02-9.68Q3.37-9.54 3.60-9.31L3.60-9.31Q3.87-9.04 3.99-8.74L3.99-8.74Q4.15-8.35 4.15-8.02L4.15-8.02ZM4.89 5.16Q5.46 5.29 5.46 5.87L5.46 5.87L5.46 7.23L-0.86 7.23L-0.86 5.87Q-0.86 5.29-0.29 5.16L-0.29 5.16L-0.15 5.13L0.19 5.06L0.88 4.95L0.88-2.30L0.19-2.41Q0.08-2.43-0.00-2.46Q-0.08-2.48-0.15-2.48L-0.15-2.48L-0.29-2.50Q-0.86-2.64-0.86-3.22L-0.86-3.22L-0.86-4.57L3.71-4.57L3.71 4.95L4.40 5.06Q4.52 5.09 4.60 5.11Q4.68 5.13 4.75 5.13L4.75 5.13L4.89 5.16ZM11.35-4.78Q12.02-4.78 12.77-4.62L12.77-4.62Q13.42-4.48 13.99-4.16L13.99-4.16L17.37-4.16L17.37-3.10Q17.37-2.83 17.24-2.69L17.24-2.69Q17.10-2.55 16.78-2.48L16.78-2.48L15.72-2.30Q15.81-2.07 15.88-1.65L15.88-1.65Q15.95-1.31 15.95-0.96L15.95-0.96Q15.95-0.07 15.60 0.62L15.60 0.62Q15.24 1.36 14.64 1.82L14.64 1.82Q14.04 2.28 13.17 2.58L13.17 2.58Q12.34 2.86 11.35 2.86L11.35 2.86Q10.57 2.86 10.04 2.74L10.04 2.74Q9.49 3.09 9.49 3.48L9.49 3.48Q9.49 3.84 9.81 4.01L9.81 4.01Q10.13 4.17 10.68 4.24L10.68 4.24Q11.42 4.33 11.90 4.33L11.90 4.33Q12.13 4.33 12.48 4.34Q12.82 4.35 13.28 4.40L13.28 4.40Q13.99 4.47 14.68 4.60L14.68 4.60Q15.28 4.72 15.88 5.06L15.88 5.06Q16.43 5.36 16.75 5.89L16.75 5.89Q17.08 6.40 17.08 7.27L17.08 7.27Q17.08 8.05 16.68 8.79L16.68 8.79Q16.32 9.53 15.58 10.10L15.58 10.10Q14.89 10.68 13.79 11.02L13.79 11.02Q12.71 11.37 11.37 11.37L11.37 11.37Q9.95 11.37 9.03 11.11L9.03 11.11Q8.06 10.84 7.39 10.42L7.39 10.42Q6.75 10.03 6.43 9.43L6.43 9.43Q6.10 8.86 6.10 8.26L6.10 8.26Q6.10 7.39 6.61 6.86L6.61 6.86Q7.09 6.33 8.01 5.98L8.01 5.98Q7.60 5.75 7.32 5.34L7.32 5.34Q7.05 4.93 7.05 4.28L7.05 4.28Q7.05 3.98 7.14 3.73L7.14 3.73Q7.28 3.36 7.42 3.18L7.42 3.18Q7.65 2.88 7.90 2.65L7.90 2.65Q8.08 2.49 8.59 2.21L8.59 2.21Q7.69 1.73 7.16 0.92L7.16 0.92Q6.66 0.14 6.66-0.96L6.66-0.96Q6.66-1.86 7.00-2.55L7.00-2.55Q7.35-3.24 7.99-3.75L7.99-3.75Q8.61-4.23 9.46-4.50L9.46-4.50Q10.34-4.78 11.35-4.78L11.35-4.78ZM11.35 1.04Q11.88 1.04 12.27 0.90L12.27 0.90Q12.66 0.76 12.91 0.51L12.91 0.51Q13.14 0.33 13.30-0.11L13.30-0.11Q13.44-0.46 13.44-0.89L13.44-0.89Q13.44-1.74 12.91-2.27L12.91-2.27Q12.41-2.78 11.35-2.78L11.35-2.78Q10.27-2.78 9.76-2.27L9.76-2.27Q9.26-1.77 9.26-0.89L9.26-0.89Q9.26-0.41 9.37-0.11L9.37-0.11Q9.51 0.23 9.76 0.49L9.76 0.49Q10.06 0.79 10.43 0.90L10.43 0.90Q10.84 1.04 11.35 1.04L11.35 1.04ZM14.45 7.75Q14.45 7.41 14.25 7.20L14.25 7.20Q14.04 7.00 13.69 6.86L13.69 6.86Q13.44 6.77 12.84 6.67L12.84 6.67Q12.48 6.63 11.83 6.58L11.83 6.58L10.73 6.54Q9.99 6.49 9.65 6.44L9.65 6.44Q9.12 6.74 8.86 7.06L8.86 7.06Q8.57 7.43 8.57 7.89L8.57 7.89Q8.57 8.15 8.73 8.47L8.73 8.47Q8.86 8.74 9.21 8.95L9.21 8.95Q9.53 9.13 10.11 9.25L10.11 9.25Q10.73 9.36 11.42 9.36L11.42 9.36Q12.22 9.36 12.80 9.23L12.80 9.23Q13.42 9.09 13.74 8.90L13.74 8.90Q14.11 8.72 14.29 8.40L14.29 8.40Q14.45 8.15 14.45 7.75L14.45 7.75ZM31.36 5.16Q31.93 5.29 31.93 5.87L31.93 5.87L31.93 7.23L27.36 7.23L27.36-0.27Q27.36-1.33 26.85-1.95L26.85-1.95Q26.37-2.55 25.36-2.55L25.36-2.55Q24.62-2.55 23.98-2.20L23.98-2.20Q23.29-1.84 22.76-1.31L22.76-1.31L22.76 4.95L23.42 5.06L23.77 5.13L23.91 5.16Q24.48 5.29 24.48 5.87L24.48 5.87L24.48 7.23L18.18 7.23L18.18 5.87Q18.18 5.29 18.75 5.16L18.75 5.16L18.89 5.13L19.24 5.06L19.90 4.95L19.90-2.30L19.24-2.41Q19.12-2.43 19.04-2.46Q18.96-2.48 18.89-2.48L18.89-2.48L18.75-2.50Q18.18-2.64 18.18-3.22L18.18-3.22L18.18-4.57L21.65-4.57Q22.18-4.57 22.37-4.04L22.37-4.04L22.57-3.12Q22.89-3.49 23.31-3.79L23.31-3.79Q23.63-4.04 24.16-4.30L24.16-4.30Q24.76-4.57 25.10-4.64L25.10-4.64Q25.68-4.76 26.21-4.76L26.21-4.76Q27.22-4.76 27.93-4.44L27.93-4.44Q28.60-4.16 29.17-3.52L29.17-3.52Q29.66-2.94 29.93-2.09L29.93-2.09Q30.19-1.33 30.19-0.27L30.19-0.27L30.19 4.95L30.88 5.06Q30.99 5.09 31.07 5.11Q31.15 5.13 31.22 5.13L31.22 5.13L31.36 5.16ZM44.12-7.33L43.99-7.31Q43.92-7.31 43.84-7.29Q43.76-7.26 43.64-7.24L43.64-7.24L42.97-7.13L42.97 4.95L43.64 5.06Q43.76 5.09 43.84 5.11Q43.92 5.13 43.99 5.13L43.99 5.13L44.12 5.16Q44.70 5.29 44.70 5.87L44.70 5.87L44.70 7.23L38.12 7.23L38.12 5.87Q38.12 5.29 38.70 5.16L38.70 5.16L38.83 5.13L39.18 5.06L39.87 4.95L39.87-7.13L39.18-7.24Q39.06-7.26 38.98-7.29Q38.90-7.31 38.83-7.31L38.83-7.31L38.70-7.33Q38.12-7.47 38.12-8.05L38.12-8.05L38.12-9.40L44.70-9.40L44.70-8.05Q44.70-7.47 44.12-7.33L44.12-7.33ZM62.34-1.10Q62.34 0.05 62.11 1.04L62.11 1.04Q61.88 1.98 61.44 2.95L61.44 2.95Q61.07 3.73 60.38 4.58L60.38 4.58Q59.74 5.36 58.98 5.89L58.98 5.89L63.19 10.49L60.66 10.49Q60.18 10.49 59.65 10.33L59.65 10.33Q59.23 10.19 58.84 9.78L58.84 9.78L56.41 7.09Q55.88 7.25 55.21 7.32L55.21 7.32Q54.38 7.41 53.92 7.41L53.92 7.41Q52.08 7.41 50.47 6.77L50.47 6.77Q48.91 6.14 47.80 4.99L47.80 4.99Q46.70 3.84 46.08 2.30L46.08 2.30Q45.48 0.81 45.48-1.10L45.48-1.10Q45.48-2.99 46.08-4.48L46.08-4.48Q46.70-6.05 47.80-7.17L47.80-7.17Q48.91-8.32 50.47-8.94L50.47-8.94Q52.08-9.59 53.92-9.59L53.92-9.59Q55.83-9.59 57.35-8.94L57.35-8.94Q58.96-8.25 60.02-7.17L60.02-7.17Q61.07-6.07 61.72-4.48L61.72-4.48Q62.34-2.94 62.34-1.10L62.34-1.10ZM59.17-1.10Q59.17-2.37 58.80-3.54L58.80-3.54Q58.45-4.60 57.76-5.38L57.76-5.38Q57.07-6.14 56.11-6.55L56.11-6.55Q55.19-6.94 53.92-6.94L53.92-6.94Q52.66-6.94 51.74-6.55L51.74-6.55Q50.72-6.11 50.06-5.38L50.06-5.38Q49.37-4.62 49.00-3.54L49.00-3.54Q48.63-2.46 48.63-1.10L48.63-1.10Q48.63 0.28 49.00 1.36L49.00 1.36Q49.37 2.44 50.06 3.20L50.06 3.20Q50.72 3.94 51.74 4.37L51.74 4.37Q52.66 4.76 53.92 4.76L53.92 4.76Q55.19 4.76 56.11 4.37L56.11 4.37Q57.07 3.96 57.76 3.20L57.76 3.20Q58.45 2.42 58.80 1.36L58.80 1.36Q59.17 0.19 59.17-1.10L59.17-1.10Z"/></g>
<g transform="matrix(0.0708 0 0 0.0708 56.8089 34.9978)" id="63586">
<g style="" vector-effect="non-scaling-stroke">
		<g transform="matrix(1.5625 0 0 1.5625 0 0)" id="441987">
<circle style="stroke: none; stroke-width: 1; stroke-dasharray: none; stroke-linecap: butt; stroke-dashoffset: 0; stroke-linejoin: miter; stroke-miterlimit: 4; is-custom-font: none; font-file-url: none; fill: rgb(158,45,112); fill-rule: nonzero; opacity: 1;" cx="0" cy="0" r="256"/>
</g>
		<g transform="matrix(1.5625 0 0 1.5625 40.625 103.5906)" id="284554">
<path style="stroke: none; stroke-width: 1; stroke-dasharray: none; stroke-linecap: butt; stroke-dashoffset: 0; stroke-linejoin: miter; stroke-miterlimit: 4; is-custom-font: none; font-file-url: none; fill: rgb(248,143,91); fill-rule: nonzero; opacity: 1;" transform=" translate(-282, -322.298)" d="M 412 280 l -60 -64 l -60 127.252 L 172 280 L 52 400 v 10.62 C 98.752 472.204 172.72 512 256 512 c 141.384 0 256 -114.616 256 -256 c 0 -44.752 -11.512 -86.8 -31.696 -123.404 L 412 280 z" stroke-linecap="round"/>
</g>
		<g transform="matrix(1.5625 0 0 1.5625 21.8745 3.1271)" id="733021">
<path style="stroke: none; stroke-width: 1; stroke-dasharray: none; stroke-linecap: butt; stroke-dashoffset: 0; stroke-linejoin: miter; stroke-miterlimit: 4; is-custom-font: none; font-file-url: none; fill: rgb(245,245,245); fill-rule: nonzero; opacity: 1;" transform=" translate(-269.9997, -258.0014)" d="M 52 408 c -2.048 0 -4.092 -0.78 -5.656 -2.344 c -3.124 -3.124 -3.124 -8.188 0 -11.312 l 120 -120 c 2.48 -2.48 6.28 -3.064 9.388 -1.42 l 112.6 59.36 l 56.432 -119.688 c 1.124 -2.4 3.368 -4.08 5.984 -4.492 c 2.624 -0.424 5.268 0.496 7.084 2.428 l 51.892 55.356 L 480.74 112.64 c 1.86 -4.012 6.612 -5.748 10.62 -3.896 c 4.008 1.856 5.752 6.612 3.896 10.62 l -76 164 c -1.116 2.416 -3.36 4.112 -5.984 4.54 c -2.616 0.408 -5.288 -0.492 -7.104 -2.424 l -51.948 -55.424 L 299.24 346.66 c -0.924 1.976 -2.628 3.484 -4.7 4.176 c -2.064 0.696 -4.332 0.508 -6.264 -0.508 l -114.78 -60.504 L 57.664 405.652 C 56.096 407.22 54.048 408 52 408 z" stroke-linecap="round"/>
</g>
		<g transform="matrix(1.5625 0 0 1.5625 -131.25 37.5001)" id="893309">
<circle style="stroke: none; stroke-width: 1; stroke-dasharray: none; stroke-linecap: butt; stroke-dashoffset: 0; stroke-linejoin: miter; stroke-miterlimit: 4; is-custom-font: none; font-file-url: none; fill: rgb(248,143,91); fill-rule: nonzero; opacity: 1;" cx="0" cy="0" r="16"/>
</g>
		<g transform="matrix(1.5625 0 0 1.5625 -131.25 37.4999)" id="201506">
<path style="stroke: none; stroke-width: 1; stroke-dasharray: none; stroke-linecap: butt; stroke-dashoffset: 0; stroke-linejoin: miter; stroke-miterlimit: 4; is-custom-font: none; font-file-url: none; fill: rgb(245,245,245); fill-rule: nonzero; opacity: 1;" transform=" translate(-172, -280)" d="M 172 264 c 8.84 0 16 7.16 16 16 s -7.16 16 -16 16 s -16 -7.16 -16 -16 S 163.16 264 172 264 M 172 256 c -13.236 0 -24 10.764 -24 24 s 10.764 24 24 24 s 24 -10.764 24 -24 S 185.236 256 172 256 L 172 256 z" stroke-linecap="round"/>
</g>
		<g transform="matrix(1.5625 0 0 1.5625 -326.6187 231.25)" id="629836">
<circle style="stroke: none; stroke-width: 1; stroke-dasharray: none; stroke-linecap: butt; stroke-dashoffset: 0; stroke-linejoin: miter; stroke-miterlimit: 4; is-custom-font: none; font-file-url: none; fill: rgb(248,143,91); fill-rule: nonzero; opacity: 1;" cx="0" cy="0" r="16"/>
</g>
		<g transform="matrix(1.5625 0 0 1.5625 -326.6187 231.25)" id="439021">
<path style="stroke: none; stroke-width: 1; stroke-dasharray: none; stroke-linecap: butt; stroke-dashoffset: 0; stroke-linejoin: miter; stroke-miterlimit: 4; is-custom-font: none; font-file-url: none; fill: rgb(245,245,245); fill-rule: nonzero; opacity: 1;" transform=" translate(-46.964, -404)" d="M 46.964 388 c 8.84 0 16 7.16 16 16 s -7.16 16 -16 16 s -16 -7.16 -16 -16 S 38.124 388 46.964 388 M 46.964 380 c -13.236 0 -24 10.764 -24 24 s 10.764 24 24 24 s 24 -10.764 24 -24 S 60.2 380 46.964 380 L 46.964 380 z" stroke-linecap="round"/>
</g>
		<g transform="matrix(1.5625 0 0 1.5625 360.875 -218.75)" id="798466">
<circle style="stroke: none; stroke-width: 1; stroke-dasharray: none; stroke-linecap: butt; stroke-dashoffset: 0; stroke-linejoin: miter; stroke-miterlimit: 4; is-custom-font: none; font-file-url: none; fill: rgb(248,143,91); fill-rule: nonzero; opacity: 1;" cx="0" cy="0" r="16"/>
</g>
		<g transform="matrix(1.5625 0 0 1.5625 360.875 -218.75)" id="27879">
<path style="stroke: none; stroke-width: 1; stroke-dasharray: none; stroke-linecap: butt; stroke-dashoffset: 0; stroke-linejoin: miter; stroke-miterlimit: 4; is-custom-font: none; font-file-url: none; fill: rgb(245,245,245); fill-rule: nonzero; opacity: 1;" transform=" translate(-486.96, -116)" d="M 486.96 100 c 8.844 0 16 7.16 16 16 s -7.156 16 -16 16 c -8.836 0 -16 -7.16 -16 -16 S 478.124 100 486.96 100 M 486.96 92 c -13.236 0 -24 10.764 -24 24 s 10.764 24 24 24 c 13.24 0 24 -10.764 24 -24 S 500.2 92 486.96 92 L 486.96 92 z" stroke-linecap="round"/>
</g>
		<g transform="matrix(1.5625 0 0 1.5625 150 -62.5001)" id="864661">
<circle style="stroke: none; stroke-width: 1; stroke-dasharray: none; stroke-linecap: butt; stroke-dashoffset: 0; stroke-linejoin: miter; stroke-miterlimit: 4; is-custom-font: none; font-file-url: none; fill: rgb(248,143,91); fill-rule: nonzero; opacity: 1;" cx="0" cy="0" r="16"/>
</g>
		<g transform="matrix(1.5625 0 0 1.5625 150 -62.5001)" id="220196">
<path style="stroke: none; stroke-width: 1; stroke-dasharray: none; stroke-linecap: butt; stroke-dashoffset: 0; stroke-linejoin: miter; stroke-miterlimit: 4; is-custom-font: none; font-file-url: none; fill: rgb(245,245,245); fill-rule: nonzero; opacity: 1;" transform=" translate(-352, -216)" d="M 352 200 c 8.84 0 16 7.16 16 16 s -7.16 16 -16 16 s -16 -7.16 -16 -16 S 343.16 200 352 200 M 352 192 c -13.236 0 -24 10.764 -24 24 s 10.764 24 24 24 s 24 -10.764 24 -24 S 365.236 192 352 192 L 352 192 z" stroke-linecap="round"/>
</g>
</g>
</g>
</svg>