<svg xmlns="http://www.w3.org/2000/svg" xmlns:xlink="http://www.w3.org/1999/xlink" version="1.1" width="200" height="200" viewBox="0 0 200 200" xml:space="preserve">
<desc>Created with Fabric.js 3.5.0</desc>
<defs>
</defs>
<rect x="0" y="0" width="100%" height="100%" fill="#ffffff"/>
<g transform="matrix(0.249 0 0 0.249 99.6 99.6)" id="690498">
<g style="" vector-effect="non-scaling-stroke">
		<g transform="matrix(1.5625 0 0 1.5625 0 0)" id="674903">
<circle style="stroke: none; stroke-width: 1; stroke-dasharray: none; stroke-linecap: butt; stroke-dashoffset: 0; stroke-linejoin: miter; stroke-miterlimit: 4; is-custom-font: none; font-file-url: none; fill: rgb(158,45,112); fill-rule: nonzero; opacity: 1;" cx="0" cy="0" r="256"/>
</g>
		<g transform="matrix(1.5625 0 0 1.5625 40.625 103.5906)" id="934278">
<path style="stroke: none; stroke-width: 1; stroke-dasharray: none; stroke-linecap: butt; stroke-dashoffset: 0; stroke-linejoin: miter; stroke-miterlimit: 4; is-custom-font: none; font-file-url: none; fill: rgb(248,143,91); fill-rule: nonzero; opacity: 1;" transform=" translate(-282, -322.298)" d="M 412 280 l -60 -64 l -60 127.252 L 172 280 L 52 400 v 10.62 C 98.752 472.204 172.72 512 256 512 c 141.384 0 256 -114.616 256 -256 c 0 -44.752 -11.512 -86.8 -31.696 -123.404 L 412 280 z" stroke-linecap="round"/>
</g>
		<g transform="matrix(1.5625 0 0 1.5625 21.8745 3.1271)" id="217343">
<path style="stroke: none; stroke-width: 1; stroke-dasharray: none; stroke-linecap: butt; stroke-dashoffset: 0; stroke-linejoin: miter; stroke-miterlimit: 4; is-custom-font: none; font-file-url: none; fill: rgb(245,245,245); fill-rule: nonzero; opacity: 1;" transform=" translate(-269.9997, -258.0014)" d="M 52 408 c -2.048 0 -4.092 -0.78 -5.656 -2.344 c -3.124 -3.124 -3.124 -8.188 0 -11.312 l 120 -120 c 2.48 -2.48 6.28 -3.064 9.388 -1.42 l 112.6 59.36 l 56.432 -119.688 c 1.124 -2.4 3.368 -4.08 5.984 -4.492 c 2.624 -0.424 5.268 0.496 7.084 2.428 l 51.892 55.356 L 480.74 112.64 c 1.86 -4.012 6.612 -5.748 10.62 -3.896 c 4.008 1.856 5.752 6.612 3.896 10.62 l -76 164 c -1.116 2.416 -3.36 4.112 -5.984 4.54 c -2.616 0.408 -5.288 -0.492 -7.104 -2.424 l -51.948 -55.424 L 299.24 346.66 c -0.924 1.976 -2.628 3.484 -4.7 4.176 c -2.064 0.696 -4.332 0.508 -6.264 -0.508 l -114.78 -60.504 L 57.664 405.652 C 56.096 407.22 54.048 408 52 408 z" stroke-linecap="round"/>
</g>
		<g transform="matrix(1.5625 0 0 1.5625 -131.25 37.5001)" id="412240">
<circle style="stroke: none; stroke-width: 1; stroke-dasharray: none; stroke-linecap: butt; stroke-dashoffset: 0; stroke-linejoin: miter; stroke-miterlimit: 4; is-custom-font: none; font-file-url: none; fill: rgb(248,143,91); fill-rule: nonzero; opacity: 1;" cx="0" cy="0" r="16"/>
</g>
		<g transform="matrix(1.5625 0 0 1.5625 -131.25 37.4999)" id="495949">
<path style="stroke: none; stroke-width: 1; stroke-dasharray: none; stroke-linecap: butt; stroke-dashoffset: 0; stroke-linejoin: miter; stroke-miterlimit: 4; is-custom-font: none; font-file-url: none; fill: rgb(245,245,245); fill-rule: nonzero; opacity: 1;" transform=" translate(-172, -280)" d="M 172 264 c 8.84 0 16 7.16 16 16 s -7.16 16 -16 16 s -16 -7.16 -16 -16 S 163.16 264 172 264 M 172 256 c -13.236 0 -24 10.764 -24 24 s 10.764 24 24 24 s 24 -10.764 24 -24 S 185.236 256 172 256 L 172 256 z" stroke-linecap="round"/>
</g>
		<g transform="matrix(1.5625 0 0 1.5625 -326.6187 231.25)" id="179779">
<circle style="stroke: none; stroke-width: 1; stroke-dasharray: none; stroke-linecap: butt; stroke-dashoffset: 0; stroke-linejoin: miter; stroke-miterlimit: 4; is-custom-font: none; font-file-url: none; fill: rgb(248,143,91); fill-rule: nonzero; opacity: 1;" cx="0" cy="0" r="16"/>
</g>
		<g transform="matrix(1.5625 0 0 1.5625 -326.6187 231.25)" id="307908">
<path style="stroke: none; stroke-width: 1; stroke-dasharray: none; stroke-linecap: butt; stroke-dashoffset: 0; stroke-linejoin: miter; stroke-miterlimit: 4; is-custom-font: none; font-file-url: none; fill: rgb(245,245,245); fill-rule: nonzero; opacity: 1;" transform=" translate(-46.964, -404)" d="M 46.964 388 c 8.84 0 16 7.16 16 16 s -7.16 16 -16 16 s -16 -7.16 -16 -16 S 38.124 388 46.964 388 M 46.964 380 c -13.236 0 -24 10.764 -24 24 s 10.764 24 24 24 s 24 -10.764 24 -24 S 60.2 380 46.964 380 L 46.964 380 z" stroke-linecap="round"/>
</g>
		<g transform="matrix(1.5625 0 0 1.5625 360.875 -218.75)" id="675588">
<circle style="stroke: none; stroke-width: 1; stroke-dasharray: none; stroke-linecap: butt; stroke-dashoffset: 0; stroke-linejoin: miter; stroke-miterlimit: 4; is-custom-font: none; font-file-url: none; fill: rgb(248,143,91); fill-rule: nonzero; opacity: 1;" cx="0" cy="0" r="16"/>
</g>
		<g transform="matrix(1.5625 0 0 1.5625 360.875 -218.75)" id="121431">
<path style="stroke: none; stroke-width: 1; stroke-dasharray: none; stroke-linecap: butt; stroke-dashoffset: 0; stroke-linejoin: miter; stroke-miterlimit: 4; is-custom-font: none; font-file-url: none; fill: rgb(245,245,245); fill-rule: nonzero; opacity: 1;" transform=" translate(-486.96, -116)" d="M 486.96 100 c 8.844 0 16 7.16 16 16 s -7.156 16 -16 16 c -8.836 0 -16 -7.16 -16 -16 S 478.124 100 486.96 100 M 486.96 92 c -13.236 0 -24 10.764 -24 24 s 10.764 24 24 24 c 13.24 0 24 -10.764 24 -24 S 500.2 92 486.96 92 L 486.96 92 z" stroke-linecap="round"/>
</g>
		<g transform="matrix(1.5625 0 0 1.5625 150 -62.5001)" id="487143">
<circle style="stroke: none; stroke-width: 1; stroke-dasharray: none; stroke-linecap: butt; stroke-dashoffset: 0; stroke-linejoin: miter; stroke-miterlimit: 4; is-custom-font: none; font-file-url: none; fill: rgb(248,143,91); fill-rule: nonzero; opacity: 1;" cx="0" cy="0" r="16"/>
</g>
		<g transform="matrix(1.5625 0 0 1.5625 150 -62.5001)" id="393936">
<path style="stroke: none; stroke-width: 1; stroke-dasharray: none; stroke-linecap: butt; stroke-dashoffset: 0; stroke-linejoin: miter; stroke-miterlimit: 4; is-custom-font: none; font-file-url: none; fill: rgb(245,245,245); fill-rule: nonzero; opacity: 1;" transform=" translate(-352, -216)" d="M 352 200 c 8.84 0 16 7.16 16 16 s -7.16 16 -16 16 s -16 -7.16 -16 -16 S 343.16 200 352 200 M 352 192 c -13.236 0 -24 10.764 -24 24 s 10.764 24 24 24 s 24 -10.764 24 -24 S 365.236 192 352 192 L 352 192 z" stroke-linecap="round"/>
</g>
</g>
</g>
</svg>